<?xml version="1.0" standalone="no"?>
<!DOCTYPE svg PUBLIC "-//W3C//DTD SVG 20010904//EN"
 "http://www.w3.org/TR/2001/REC-SVG-20010904/DTD/svg10.dtd">
<svg version="1.0" xmlns="http://www.w3.org/2000/svg"
 width="532.000000pt" height="532.000000pt" viewBox="0 0 532.000000 532.000000"
 preserveAspectRatio="xMidYMid meet">
<metadata>
Created by potrace 1.14, written by Peter Selinger 2001-2017
</metadata>
<g transform="translate(0.000000,532.000000) scale(0.100000,-0.100000)"
fill="#000000" stroke="none">
<path d="M2240 3318 c-19 -4 -46 -11 -59 -14 -88 -19 -225 -136 -278 -239 -66
-126 -93 -308 -70 -474 40 -291 246 -478 517 -470 36 1 79 6 95 11 17 5 38 11
48 13 31 7 120 66 159 106 l36 37 -40 46 -41 46 -32 -28 c-60 -51 -70 -57
-115 -79 -63 -29 -194 -27 -262 6 -64 31 -132 101 -164 170 -25 55 -30 71 -40
121 -2 14 -7 36 -10 50 -11 48 -5 198 11 265 33 144 115 248 230 291 39 14 51
16 120 16 80 0 121 -15 189 -67 l46 -35 19 23 c11 12 29 33 40 46 l21 24 -28
26 c-38 36 -99 74 -152 95 -50 20 -185 28 -240 14z"/>
<path d="M3275 2856 c-1 -338 -4 -460 -13 -488 -28 -79 -96 -122 -184 -117
-60 3 -110 31 -154 83 -40 48 -47 48 -91 7 -12 -12 -27 -21 -33 -21 -18 0 -11
-26 19 -67 37 -51 85 -88 142 -109 60 -23 204 -26 263 -7 58 19 128 81 155
137 46 93 48 124 50 587 1 241 -1 440 -6 440 -4 1 -39 2 -78 4 l-70 2 0 -451z"/>
</g>
</svg>
